<svg width="144" height="28" viewBox="0 0 144 28" fill="none" xmlns="http://www.w3.org/2000/svg">
<path d="M28.6204 23.7982C28.5211 23.7982 28.4211 23.7942 28.3207 23.7861L15.5852 22.7465C13.6318 22.5869 11.9825 21.2067 11.4813 19.3121L8.99843 9.92731C8.5582 8.25858 8.10284 6.53322 6.15743 6.0105L0.619594 4.87198C0.200051 4.78575 -0.0702932 4.37564 0.0160719 3.95597C0.102308 3.5363 0.51306 3.26608 0.932086 3.35232L6.53276 4.50493C9.36936 5.25145 10.022 7.72526 10.4986 9.53156L10.5304 9.65232L12.9812 18.9154C13.3146 20.1758 14.4118 21.0939 15.7114 21.2002L28.447 22.2398C29.4596 22.3225 30.3901 21.6717 30.6602 20.6927L33.0064 12.1879L16.7439 10.852C16.3921 10.8234 16.0602 10.9608 15.8324 11.2299C15.6046 11.4991 15.5235 11.8493 15.61 12.1912L16.3358 15.0618C16.5758 16.0105 17.3911 16.7138 18.3649 16.812L26.0319 17.5846C26.4234 17.624 26.781 17.3909 26.9038 17.0182C26.9832 16.7767 26.9489 16.5161 26.8095 16.3035C26.67 16.0908 26.4448 15.9553 26.1915 15.9319L19.7529 15.3364C19.3264 15.2969 19.0126 14.9192 19.0521 14.4925C19.0915 14.066 19.4672 13.7519 19.8959 13.7915L26.3345 14.387C27.061 14.4542 27.7071 14.8428 28.1071 15.453C28.507 16.0631 28.6055 16.8107 28.3773 17.5035C28.025 18.5731 26.9952 19.2413 25.8763 19.1282L18.2094 18.3555C16.5885 18.1922 15.2311 17.0214 14.8317 15.4421L14.1059 12.5715C13.895 11.738 14.0928 10.8837 14.6484 10.2275C15.2039 9.57125 16.0139 9.23575 16.8708 9.30569L35 10.795L32.1558 21.1053C31.7145 22.7044 30.2556 23.7981 28.6204 23.7982Z" fill="#6F48EB"/>
<path d="M17.399 25.7092C17.399 26.8756 16.4535 27.821 15.2872 27.821C14.121 27.821 13.1755 26.8756 13.1755 25.7092C13.1755 24.5429 14.121 23.5976 15.2872 23.5976C16.4535 23.5976 17.399 24.5429 17.399 25.7092Z" fill="#FACC15"/>
<path d="M27.8971 26.3512C27.8971 27.0559 27.3259 27.6271 26.6213 27.6271C25.9167 27.6271 25.3455 27.0559 25.3455 26.3512C25.3455 25.6466 25.9167 25.0754 26.6213 25.0754C27.3259 25.0754 27.8971 25.6466 27.8971 26.3512Z" fill="#FACC15"/>
<path d="M15.1802 6.94396C15.1802 7.96741 14.3506 8.79706 13.3271 8.79706C12.3037 8.79706 11.4739 7.96741 11.4739 6.94396C11.4739 5.92051 12.3037 5.09073 13.3271 5.09073C14.3506 5.09073 15.1802 5.92051 15.1802 6.94396Z" fill="#FACC15"/>
<path d="M18.6166 2.50497C18.6166 3.8885 17.4952 5.00995 16.1117 5.00995C14.7283 5.00995 13.6067 3.8885 13.6067 2.50497C13.6067 1.12158 14.7283 -4.76837e-07 16.1117 -4.76837e-07C17.4952 -4.76837e-07 18.6166 1.12158 18.6166 2.50497Z" fill="#6F48EB"/>
<path d="M18.0095 6.32622C18.0095 6.81015 17.6172 7.20255 17.1332 7.20255C16.6492 7.20255 16.2568 6.81015 16.2568 6.32622C16.2568 5.8423 16.6492 5.4499 17.1332 5.4499C17.6172 5.4499 18.0095 5.8423 18.0095 6.32622Z" fill="#6F48EB"/>
<path d="M23.4482 3.77638C23.4482 4.89499 22.5413 5.80182 21.4227 5.80182C20.3039 5.80182 19.3972 4.89499 19.3972 3.77638C19.3972 2.65764 20.3039 1.75081 21.4227 1.75081C22.5413 1.75081 23.4482 2.65764 23.4482 3.77638Z" fill="#FACC15"/>
<path d="M25.3928 7.57956C25.3928 8.49002 24.6547 9.228 23.7444 9.228C22.8339 9.228 22.0959 8.49002 22.0959 7.57956C22.0959 6.66924 22.8339 5.93113 23.7444 5.93113C24.6547 5.93113 25.3928 6.66924 25.3928 7.57956Z" fill="#FACC15"/>
<path d="M32.3906 8.30152C32.3906 9.21197 31.6525 9.94995 30.7422 9.94995C29.8317 9.94995 29.0938 9.21197 29.0938 8.30152C29.0938 7.39119 29.8317 6.65308 30.7422 6.65308C31.6525 6.65308 32.3906 7.39119 32.3906 8.30152Z" fill="#6F48EB"/>
<path d="M20.9325 7.87046C20.9325 8.47748 20.4406 8.96942 19.8336 8.96942C19.2267 8.96942 18.7346 8.47748 18.7346 7.87046C18.7346 7.26358 19.2267 6.77151 19.8336 6.77151C20.4406 6.77151 20.9325 7.26358 20.9325 7.87046Z" fill="#6F48EB"/>
<path d="M27.5905 3.88409C27.5905 4.64573 26.973 5.26321 26.2114 5.26321C25.4499 5.26321 24.8323 4.64573 24.8323 3.88409C24.8323 3.12245 25.4499 2.50496 26.2114 2.50496C26.973 2.50496 27.5905 3.12245 27.5905 3.88409Z" fill="#6F48EB"/>
<path d="M28.1723 8.30149C28.1723 8.90838 27.6803 9.40045 27.0733 9.40045C26.4664 9.40045 25.9744 8.90838 25.9744 8.30149C25.9744 7.69461 26.4664 7.20254 27.0733 7.20254C27.6803 7.20254 28.1723 7.69461 28.1723 8.30149Z" fill="#6F48EB"/>
<path d="M29.4451 5.80184C29.4451 6.31356 29.0303 6.72845 28.5185 6.72845C28.0068 6.72845 27.592 6.31356 27.592 5.80184C27.592 5.29011 28.0068 4.87535 28.5185 4.87535C29.0303 4.87535 29.4451 5.29011 29.4451 5.80184Z" fill="#FACC15"/>
<path d="M44.9727 17.1094C44.9727 16.888 44.9141 16.6895 44.7969 16.5137C44.6797 16.3379 44.4583 16.1784 44.1328 16.0352C43.8138 15.8854 43.3451 15.7454 42.7266 15.6152C42.1797 15.498 41.6751 15.3516 41.2129 15.1758C40.7507 15 40.3535 14.7884 40.0215 14.541C39.6895 14.2871 39.429 13.9909 39.2402 13.6523C39.0579 13.3073 38.9668 12.9102 38.9668 12.4609C38.9668 12.0247 39.0612 11.6146 39.25 11.2305C39.4388 10.8398 39.7122 10.498 40.0703 10.2051C40.4284 9.9056 40.8646 9.67122 41.3789 9.50195C41.8932 9.32617 42.4727 9.23828 43.1172 9.23828C44.0156 9.23828 44.7871 9.38477 45.4316 9.67773C46.0827 9.9707 46.5807 10.3743 46.9258 10.8887C47.2708 11.3965 47.4434 11.9694 47.4434 12.6074H44.8652C44.8652 12.3275 44.8001 12.0736 44.6699 11.8457C44.5462 11.6178 44.3542 11.4355 44.0938 11.2988C43.8333 11.1556 43.5046 11.084 43.1074 11.084C42.7493 11.084 42.4466 11.1426 42.1992 11.2598C41.9583 11.377 41.776 11.5299 41.6523 11.7188C41.5286 11.9076 41.4668 12.1159 41.4668 12.3438C41.4668 12.513 41.4993 12.666 41.5645 12.8027C41.6361 12.9329 41.75 13.0534 41.9062 13.1641C42.0625 13.2747 42.2741 13.3757 42.541 13.4668C42.8145 13.5579 43.1497 13.6458 43.5469 13.7305C44.3346 13.8867 45.0215 14.0951 45.6074 14.3555C46.1999 14.6094 46.6621 14.9479 46.9941 15.3711C47.3262 15.7943 47.4922 16.3346 47.4922 16.9922C47.4922 17.4609 47.3913 17.8906 47.1895 18.2812C46.9876 18.6654 46.6947 19.0007 46.3105 19.2871C45.9264 19.5736 45.4674 19.7982 44.9336 19.9609C44.3997 20.1172 43.7975 20.1953 43.127 20.1953C42.1569 20.1953 41.3366 20.0228 40.666 19.6777C39.9954 19.3262 39.4876 18.8835 39.1426 18.3496C38.7975 17.8092 38.625 17.2493 38.625 16.6699H41.0957C41.1152 17.0801 41.2259 17.4089 41.4277 17.6562C41.6296 17.9036 41.8835 18.0827 42.1895 18.1934C42.502 18.2975 42.8307 18.3496 43.1758 18.3496C43.5664 18.3496 43.8952 18.2975 44.1621 18.1934C44.429 18.0827 44.6309 17.9362 44.7676 17.7539C44.9043 17.5651 44.9727 17.3503 44.9727 17.1094ZM51.9844 5V20H49.3965V5H51.9844ZM51.5742 14.3359H50.8125C50.8125 13.6003 50.9102 12.9232 51.1055 12.3047C51.3008 11.6862 51.5775 11.1491 51.9355 10.6934C52.2936 10.2311 52.7201 9.87305 53.2148 9.61914C53.7161 9.36523 54.2695 9.23828 54.875 9.23828C55.3958 9.23828 55.8678 9.31315 56.291 9.46289C56.7207 9.60612 57.0885 9.83724 57.3945 10.1562C57.7005 10.4753 57.9349 10.8919 58.0977 11.4062C58.2669 11.9141 58.3516 12.5326 58.3516 13.2617V20H55.7539V13.2422C55.7539 12.7539 55.6823 12.3698 55.5391 12.0898C55.3958 11.8034 55.1908 11.5983 54.9238 11.4746C54.6634 11.3509 54.3411 11.2891 53.957 11.2891C53.5404 11.2891 53.1823 11.3704 52.8828 11.5332C52.5833 11.6895 52.3359 11.9076 52.1406 12.1875C51.9518 12.4674 51.8086 12.7897 51.7109 13.1543C51.6198 13.5189 51.5742 13.9128 51.5742 14.3359ZM60.168 14.8242V14.6191C60.168 13.8444 60.2786 13.1315 60.5 12.4805C60.7214 11.8229 61.0436 11.2533 61.4668 10.7715C61.89 10.2897 62.4076 9.91536 63.0195 9.64844C63.6315 9.375 64.3281 9.23828 65.1094 9.23828C65.9036 9.23828 66.6068 9.375 67.2188 9.64844C67.8372 9.91536 68.3581 10.2897 68.7812 10.7715C69.2044 11.2533 69.5267 11.8229 69.748 12.4805C69.9694 13.1315 70.0801 13.8444 70.0801 14.6191V14.8242C70.0801 15.5924 69.9694 16.3053 69.748 16.9629C69.5267 17.6139 69.2044 18.1836 68.7812 18.6719C68.3581 19.1536 67.8405 19.528 67.2285 19.7949C66.6165 20.0618 65.9167 20.1953 65.1289 20.1953C64.3477 20.1953 63.6478 20.0618 63.0293 19.7949C62.4108 19.528 61.89 19.1536 61.4668 18.6719C61.0436 18.1836 60.7214 17.6139 60.5 16.9629C60.2786 16.3053 60.168 15.5924 60.168 14.8242ZM62.7461 14.6191V14.8242C62.7461 15.2865 62.7917 15.7194 62.8828 16.123C62.974 16.5267 63.1139 16.8815 63.3027 17.1875C63.4915 17.4935 63.7357 17.7344 64.0352 17.9102C64.3411 18.0794 64.7057 18.1641 65.1289 18.1641C65.5456 18.1641 65.9036 18.0794 66.2031 17.9102C66.5026 17.7344 66.7467 17.4935 66.9355 17.1875C67.1309 16.8815 67.2741 16.5267 67.3652 16.123C67.4564 15.7194 67.502 15.2865 67.502 14.8242V14.6191C67.502 14.1634 67.4564 13.737 67.3652 13.3398C67.2741 12.9362 67.1309 12.5814 66.9355 12.2754C66.7467 11.9629 66.4993 11.7188 66.1934 11.543C65.8939 11.3607 65.5326 11.2695 65.1094 11.2695C64.6927 11.2695 64.3346 11.3607 64.0352 11.543C63.7357 11.7188 63.4915 11.9629 63.3027 12.2754C63.1139 12.5814 62.974 12.9362 62.8828 13.3398C62.7917 13.737 62.7461 14.1634 62.7461 14.6191ZM74.5332 11.4648V24.0625H71.9453V9.43359H74.3379L74.5332 11.4648ZM81.3203 14.6094V14.8145C81.3203 15.5827 81.2292 16.2956 81.0469 16.9531C80.8711 17.6042 80.6107 18.1738 80.2656 18.6621C79.9206 19.1439 79.4909 19.5215 78.9766 19.7949C78.4688 20.0618 77.8828 20.1953 77.2188 20.1953C76.5677 20.1953 76.0013 20.0716 75.5195 19.8242C75.0378 19.5703 74.6309 19.2122 74.2988 18.75C73.9668 18.2878 73.6999 17.7507 73.498 17.1387C73.3027 16.5202 73.1562 15.8464 73.0586 15.1172V14.4629C73.1562 13.6882 73.3027 12.985 73.498 12.3535C73.6999 11.7155 73.9668 11.1654 74.2988 10.7031C74.6309 10.2344 75.0345 9.87305 75.5098 9.61914C75.9915 9.36523 76.5547 9.23828 77.1992 9.23828C77.8698 9.23828 78.459 9.36523 78.9668 9.61914C79.4811 9.87305 79.9141 10.2376 80.2656 10.7129C80.6172 11.1882 80.8809 11.7546 81.0566 12.4121C81.2324 13.0697 81.3203 13.8021 81.3203 14.6094ZM78.7324 14.8145V14.6094C78.7324 14.1406 78.6901 13.7077 78.6055 13.3105C78.5208 12.9069 78.3906 12.5553 78.2148 12.2559C78.0391 11.9499 77.8112 11.7122 77.5312 11.543C77.2513 11.3737 76.9128 11.2891 76.5156 11.2891C76.1185 11.2891 75.7767 11.3542 75.4902 11.4844C75.2038 11.6146 74.9694 11.8001 74.7871 12.041C74.6048 12.2819 74.4616 12.5684 74.3574 12.9004C74.2598 13.2259 74.1947 13.5872 74.1621 13.9844V15.6055C74.2207 16.0872 74.3346 16.5202 74.5039 16.9043C74.6732 17.2884 74.9206 17.5944 75.2461 17.8223C75.5781 18.0501 76.0078 18.1641 76.5352 18.1641C76.9323 18.1641 77.2708 18.0762 77.5508 17.9004C77.8307 17.7246 78.0586 17.4837 78.2344 17.1777C78.4102 16.8652 78.5371 16.5072 78.6152 16.1035C78.6934 15.6999 78.7324 15.2702 78.7324 14.8145Z" fill="black"/>
<path d="M89.0156 17.1094C89.0156 16.888 88.957 16.6895 88.8398 16.5137C88.7227 16.3379 88.5013 16.1784 88.1758 16.0352C87.8568 15.8854 87.388 15.7454 86.7695 15.6152C86.2227 15.498 85.7181 15.3516 85.2559 15.1758C84.7936 15 84.3965 14.7884 84.0645 14.541C83.7324 14.2871 83.472 13.9909 83.2832 13.6523C83.1009 13.3073 83.0098 12.9102 83.0098 12.4609C83.0098 12.0247 83.1042 11.6146 83.293 11.2305C83.4818 10.8398 83.7552 10.498 84.1133 10.2051C84.4714 9.9056 84.9076 9.67122 85.4219 9.50195C85.9362 9.32617 86.5156 9.23828 87.1602 9.23828C88.0586 9.23828 88.8301 9.38477 89.4746 9.67773C90.1257 9.9707 90.6237 10.3743 90.9688 10.8887C91.3138 11.3965 91.4863 11.9694 91.4863 12.6074H88.9082C88.9082 12.3275 88.8431 12.0736 88.7129 11.8457C88.5892 11.6178 88.3971 11.4355 88.1367 11.2988C87.8763 11.1556 87.5475 11.084 87.1504 11.084C86.7923 11.084 86.4896 11.1426 86.2422 11.2598C86.0013 11.377 85.819 11.5299 85.6953 11.7188C85.5716 11.9076 85.5098 12.1159 85.5098 12.3438C85.5098 12.513 85.5423 12.666 85.6074 12.8027C85.679 12.9329 85.793 13.0534 85.9492 13.1641C86.1055 13.2747 86.3171 13.3757 86.584 13.4668C86.8574 13.5579 87.1927 13.6458 87.5898 13.7305C88.3776 13.8867 89.0645 14.0951 89.6504 14.3555C90.2428 14.6094 90.7051 14.9479 91.0371 15.3711C91.3691 15.7943 91.5352 16.3346 91.5352 16.9922C91.5352 17.4609 91.4342 17.8906 91.2324 18.2812C91.0306 18.6654 90.7376 19.0007 90.3535 19.2871C89.9694 19.5736 89.5104 19.7982 88.9766 19.9609C88.4427 20.1172 87.8405 20.1953 87.1699 20.1953C86.1999 20.1953 85.3796 20.0228 84.709 19.6777C84.0384 19.3262 83.5306 18.8835 83.1855 18.3496C82.8405 17.8092 82.668 17.2493 82.668 16.6699H85.1387C85.1582 17.0801 85.2689 17.4089 85.4707 17.6562C85.6725 17.9036 85.9264 18.0827 86.2324 18.1934C86.5449 18.2975 86.8737 18.3496 87.2188 18.3496C87.6094 18.3496 87.9382 18.2975 88.2051 18.1934C88.472 18.0827 88.6738 17.9362 88.8105 17.7539C88.9473 17.5651 89.0156 17.3503 89.0156 17.1094ZM96.0762 11.4648V24.0625H93.4883V9.43359H95.8809L96.0762 11.4648ZM102.863 14.6094V14.8145C102.863 15.5827 102.772 16.2956 102.59 16.9531C102.414 17.6042 102.154 18.1738 101.809 18.6621C101.464 19.1439 101.034 19.5215 100.52 19.7949C100.012 20.0618 99.4258 20.1953 98.7617 20.1953C98.1107 20.1953 97.5443 20.0716 97.0625 19.8242C96.5807 19.5703 96.1738 19.2122 95.8418 18.75C95.5098 18.2878 95.2428 17.7507 95.041 17.1387C94.8457 16.5202 94.6992 15.8464 94.6016 15.1172V14.4629C94.6992 13.6882 94.8457 12.985 95.041 12.3535C95.2428 11.7155 95.5098 11.1654 95.8418 10.7031C96.1738 10.2344 96.5775 9.87305 97.0527 9.61914C97.5345 9.36523 98.0977 9.23828 98.7422 9.23828C99.4128 9.23828 100.002 9.36523 100.51 9.61914C101.024 9.87305 101.457 10.2376 101.809 10.7129C102.16 11.1882 102.424 11.7546 102.6 12.4121C102.775 13.0697 102.863 13.8021 102.863 14.6094ZM100.275 14.8145V14.6094C100.275 14.1406 100.233 13.7077 100.148 13.3105C100.064 12.9069 99.9336 12.5553 99.7578 12.2559C99.582 11.9499 99.3542 11.7122 99.0742 11.543C98.7943 11.3737 98.4557 11.2891 98.0586 11.2891C97.6615 11.2891 97.3197 11.3542 97.0332 11.4844C96.7467 11.6146 96.5124 11.8001 96.3301 12.041C96.1478 12.2819 96.0046 12.5684 95.9004 12.9004C95.8027 13.2259 95.7376 13.5872 95.7051 13.9844V15.6055C95.7637 16.0872 95.8776 16.5202 96.0469 16.9043C96.2161 17.2884 96.4635 17.5944 96.7891 17.8223C97.1211 18.0501 97.5508 18.1641 98.0781 18.1641C98.4753 18.1641 98.8138 18.0762 99.0938 17.9004C99.3737 17.7246 99.6016 17.4837 99.7773 17.1777C99.9531 16.8652 100.08 16.5072 100.158 16.1035C100.236 15.6999 100.275 15.2702 100.275 14.8145ZM107.277 5V20H104.689V5H107.277ZM106.867 14.3359H106.105C106.105 13.6003 106.203 12.9232 106.398 12.3047C106.594 11.6862 106.87 11.1491 107.229 10.6934C107.587 10.2311 108.013 9.87305 108.508 9.61914C109.009 9.36523 109.562 9.23828 110.168 9.23828C110.689 9.23828 111.161 9.31315 111.584 9.46289C112.014 9.60612 112.382 9.83724 112.688 10.1562C112.993 10.4753 113.228 10.8919 113.391 11.4062C113.56 11.9141 113.645 12.5326 113.645 13.2617V20H111.047V13.2422C111.047 12.7539 110.975 12.3698 110.832 12.0898C110.689 11.8034 110.484 11.5983 110.217 11.4746C109.956 11.3509 109.634 11.2891 109.25 11.2891C108.833 11.2891 108.475 11.3704 108.176 11.5332C107.876 11.6895 107.629 11.9076 107.434 12.1875C107.245 12.4674 107.102 12.7897 107.004 13.1543C106.913 13.5189 106.867 13.9128 106.867 14.3359ZM120.666 20.1953C119.865 20.1953 119.146 20.0651 118.508 19.8047C117.87 19.5443 117.326 19.1829 116.877 18.7207C116.434 18.252 116.092 17.7083 115.852 17.0898C115.617 16.4648 115.5 15.7943 115.5 15.0781V14.6875C115.5 13.8737 115.617 13.1348 115.852 12.4707C116.086 11.8001 116.418 11.224 116.848 10.7422C117.277 10.2604 117.792 9.88932 118.391 9.62891C118.99 9.36849 119.65 9.23828 120.373 9.23828C121.122 9.23828 121.783 9.36523 122.355 9.61914C122.928 9.86654 123.407 10.2181 123.791 10.6738C124.175 11.1296 124.465 11.6764 124.66 12.3145C124.855 12.946 124.953 13.6458 124.953 14.4141V15.498H116.672V13.7207H122.414V13.5254C122.401 13.1152 122.323 12.7409 122.18 12.4023C122.036 12.0573 121.815 11.7839 121.516 11.582C121.216 11.3737 120.829 11.2695 120.354 11.2695C119.969 11.2695 119.634 11.3542 119.348 11.5234C119.068 11.6862 118.833 11.9206 118.645 12.2266C118.462 12.526 118.326 12.8841 118.234 13.3008C118.143 13.7174 118.098 14.1797 118.098 14.6875V15.0781C118.098 15.5208 118.156 15.931 118.273 16.3086C118.397 16.6862 118.576 17.015 118.811 17.2949C119.051 17.5684 119.338 17.7832 119.67 17.9395C120.008 18.0892 120.393 18.1641 120.822 18.1641C121.363 18.1641 121.851 18.0599 122.287 17.8516C122.73 17.6367 123.114 17.321 123.439 16.9043L124.738 18.252C124.517 18.5775 124.217 18.89 123.84 19.1895C123.469 19.4889 123.02 19.7331 122.492 19.9219C121.965 20.1042 121.356 20.1953 120.666 20.1953ZM129.26 11.5918V20H126.682V9.43359H129.123L129.26 11.5918ZM132.473 9.36523L132.434 11.7676C132.29 11.7415 132.128 11.722 131.945 11.709C131.77 11.696 131.604 11.6895 131.447 11.6895C131.05 11.6895 130.702 11.7448 130.402 11.8555C130.103 11.9596 129.852 12.1126 129.65 12.3145C129.455 12.5163 129.305 12.7637 129.201 13.0566C129.097 13.3431 129.038 13.6686 129.025 14.0332L128.469 13.9648C128.469 13.2943 128.537 12.6725 128.674 12.0996C128.811 11.5267 129.009 11.0254 129.27 10.5957C129.53 10.166 129.855 9.83398 130.246 9.59961C130.643 9.35872 131.099 9.23828 131.613 9.23828C131.757 9.23828 131.91 9.2513 132.072 9.27734C132.242 9.29688 132.375 9.32617 132.473 9.36523ZM138.439 20.1953C137.639 20.1953 136.919 20.0651 136.281 19.8047C135.643 19.5443 135.1 19.1829 134.65 18.7207C134.208 18.252 133.866 17.7083 133.625 17.0898C133.391 16.4648 133.273 15.7943 133.273 15.0781V14.6875C133.273 13.8737 133.391 13.1348 133.625 12.4707C133.859 11.8001 134.191 11.224 134.621 10.7422C135.051 10.2604 135.565 9.88932 136.164 9.62891C136.763 9.36849 137.424 9.23828 138.146 9.23828C138.895 9.23828 139.556 9.36523 140.129 9.61914C140.702 9.86654 141.18 10.2181 141.564 10.6738C141.949 11.1296 142.238 11.6764 142.434 12.3145C142.629 12.946 142.727 13.6458 142.727 14.4141V15.498H134.445V13.7207H140.188V13.5254C140.174 13.1152 140.096 12.7409 139.953 12.4023C139.81 12.0573 139.589 11.7839 139.289 11.582C138.99 11.3737 138.602 11.2695 138.127 11.2695C137.743 11.2695 137.408 11.3542 137.121 11.5234C136.841 11.6862 136.607 11.9206 136.418 12.2266C136.236 12.526 136.099 12.8841 136.008 13.3008C135.917 13.7174 135.871 14.1797 135.871 14.6875V15.0781C135.871 15.5208 135.93 15.931 136.047 16.3086C136.171 16.6862 136.35 17.015 136.584 17.2949C136.825 17.5684 137.111 17.7832 137.443 17.9395C137.782 18.0892 138.166 18.1641 138.596 18.1641C139.136 18.1641 139.624 18.0599 140.061 17.8516C140.503 17.6367 140.887 17.321 141.213 16.9043L142.512 18.252C142.29 18.5775 141.991 18.89 141.613 19.1895C141.242 19.4889 140.793 19.7331 140.266 19.9219C139.738 20.1042 139.13 20.1953 138.439 20.1953Z" fill="#6F48EB"/>
</svg>
