<svg width="144" height="28" viewBox="0 0 144 28" fill="none" xmlns="http://www.w3.org/2000/svg">
<path d="M28.6204 23.7982C28.5211 23.7982 28.4211 23.7942 28.3207 23.7861L15.5852 22.7465C13.6318 22.5869 11.9825 21.2067 11.4813 19.3121L8.99843 9.92731C8.5582 8.25858 8.10284 6.53322 6.15743 6.0105L0.619594 4.87198C0.200051 4.78575 -0.0702932 4.37564 0.0160719 3.95597C0.102308 3.5363 0.51306 3.26608 0.932086 3.35232L6.53276 4.50493C9.36936 5.25145 10.022 7.72526 10.4986 9.53156L10.5304 9.65232L12.9812 18.9154C13.3146 20.1758 14.4118 21.0939 15.7114 21.2002L28.447 22.2398C29.4596 22.3225 30.3901 21.6717 30.6602 20.6927L33.0064 12.1879L16.7439 10.852C16.3921 10.8234 16.0602 10.9608 15.8324 11.2299C15.6046 11.4991 15.5235 11.8493 15.61 12.1912L16.3358 15.0618C16.5758 16.0105 17.3911 16.7138 18.3649 16.812L26.0319 17.5846C26.4234 17.624 26.781 17.3909 26.9038 17.0182C26.9832 16.7767 26.9489 16.5161 26.8095 16.3035C26.67 16.0908 26.4448 15.9553 26.1915 15.9319L19.7529 15.3364C19.3264 15.2969 19.0126 14.9192 19.0521 14.4925C19.0915 14.066 19.4672 13.7519 19.8959 13.7915L26.3345 14.387C27.061 14.4542 27.7071 14.8428 28.1071 15.453C28.507 16.0631 28.6055 16.8107 28.3773 17.5035C28.025 18.5731 26.9952 19.2413 25.8763 19.1282L18.2094 18.3555C16.5885 18.1922 15.2311 17.0214 14.8317 15.4421L14.1059 12.5715C13.895 11.738 14.0928 10.8837 14.6484 10.2275C15.2039 9.57125 16.0139 9.23575 16.8708 9.30569L35 10.795L32.1558 21.1053C31.7145 22.7044 30.2556 23.7981 28.6204 23.7982Z" fill="#FAFAFA"/>
<path d="M17.399 25.7092C17.399 26.8756 16.4535 27.821 15.2872 27.821C14.121 27.821 13.1755 26.8756 13.1755 25.7092C13.1755 24.5429 14.121 23.5976 15.2872 23.5976C16.4535 23.5976 17.399 24.5429 17.399 25.7092Z" fill="#FAFAFA"/>
<path d="M27.8971 26.3512C27.8971 27.0559 27.3259 27.6271 26.6213 27.6271C25.9167 27.6271 25.3455 27.0559 25.3455 26.3512C25.3455 25.6466 25.9167 25.0754 26.6213 25.0754C27.3259 25.0754 27.8971 25.6466 27.8971 26.3512Z" fill="#FAFAFA"/>
<path d="M15.1802 6.94396C15.1802 7.96741 14.3506 8.79706 13.3271 8.79706C12.3037 8.79706 11.4739 7.96741 11.4739 6.94396C11.4739 5.92051 12.3037 5.09073 13.3271 5.09073C14.3506 5.09073 15.1802 5.92051 15.1802 6.94396Z" fill="#FAFAFA"/>
<path d="M18.6166 2.50497C18.6166 3.8885 17.4952 5.00995 16.1117 5.00995C14.7283 5.00995 13.6067 3.8885 13.6067 2.50497C13.6067 1.12158 14.7283 -4.76837e-07 16.1117 -4.76837e-07C17.4952 -4.76837e-07 18.6166 1.12158 18.6166 2.50497Z" fill="#FAFAFA"/>
<path d="M18.0095 6.32622C18.0095 6.81015 17.6172 7.20255 17.1332 7.20255C16.6492 7.20255 16.2568 6.81015 16.2568 6.32622C16.2568 5.8423 16.6492 5.4499 17.1332 5.4499C17.6172 5.4499 18.0095 5.8423 18.0095 6.32622Z" fill="#FAFAFA"/>
<path d="M23.4482 3.77638C23.4482 4.89499 22.5413 5.80182 21.4227 5.80182C20.3039 5.80182 19.3972 4.89499 19.3972 3.77638C19.3972 2.65764 20.3039 1.75081 21.4227 1.75081C22.5413 1.75081 23.4482 2.65764 23.4482 3.77638Z" fill="#FAFAFA"/>
<path d="M25.3928 7.57956C25.3928 8.49002 24.6547 9.228 23.7444 9.228C22.8339 9.228 22.0959 8.49002 22.0959 7.57956C22.0959 6.66924 22.8339 5.93113 23.7444 5.93113C24.6547 5.93113 25.3928 6.66924 25.3928 7.57956Z" fill="#FAFAFA"/>
<path d="M32.3906 8.30152C32.3906 9.21197 31.6525 9.94995 30.7422 9.94995C29.8317 9.94995 29.0938 9.21197 29.0938 8.30152C29.0938 7.39119 29.8317 6.65308 30.7422 6.65308C31.6525 6.65308 32.3906 7.39119 32.3906 8.30152Z" fill="#FAFAFA"/>
<path d="M20.9325 7.87046C20.9325 8.47748 20.4406 8.96942 19.8336 8.96942C19.2267 8.96942 18.7346 8.47748 18.7346 7.87046C18.7346 7.26358 19.2267 6.77151 19.8336 6.77151C20.4406 6.77151 20.9325 7.26358 20.9325 7.87046Z" fill="#FAFAFA"/>
<path d="M27.5905 3.88409C27.5905 4.64573 26.973 5.26321 26.2114 5.26321C25.4499 5.26321 24.8323 4.64573 24.8323 3.88409C24.8323 3.12245 25.4499 2.50496 26.2114 2.50496C26.973 2.50496 27.5905 3.12245 27.5905 3.88409Z" fill="#FAFAFA"/>
<path d="M28.1723 8.30149C28.1723 8.90838 27.6803 9.40045 27.0733 9.40045C26.4664 9.40045 25.9744 8.90838 25.9744 8.30149C25.9744 7.69461 26.4664 7.20254 27.0733 7.20254C27.6803 7.20254 28.1723 7.69461 28.1723 8.30149Z" fill="#FAFAFA"/>
<path d="M29.4451 5.80184C29.4451 6.31356 29.0303 6.72845 28.5185 6.72845C28.0068 6.72845 27.592 6.31356 27.592 5.80184C27.592 5.29011 28.0068 4.87535 28.5185 4.87535C29.0303 4.87535 29.4451 5.29011 29.4451 5.80184Z" fill="#FAFAFA"/>
<path d="M44.9727 20.1094C44.9727 19.888 44.9141 19.6895 44.7969 19.5137C44.6797 19.3379 44.4583 19.1784 44.1328 19.0352C43.8138 18.8854 43.3451 18.7454 42.7266 18.6152C42.1797 18.498 41.6751 18.3516 41.2129 18.1758C40.7507 18 40.3535 17.7884 40.0215 17.541C39.6895 17.2871 39.429 16.9909 39.2402 16.6523C39.0579 16.3073 38.9668 15.9102 38.9668 15.4609C38.9668 15.0247 39.0612 14.6146 39.25 14.2305C39.4388 13.8398 39.7122 13.498 40.0703 13.2051C40.4284 12.9056 40.8646 12.6712 41.3789 12.502C41.8932 12.3262 42.4727 12.2383 43.1172 12.2383C44.0156 12.2383 44.7871 12.3848 45.4316 12.6777C46.0827 12.9707 46.5807 13.3743 46.9258 13.8887C47.2708 14.3965 47.4434 14.9694 47.4434 15.6074H44.8652C44.8652 15.3275 44.8001 15.0736 44.6699 14.8457C44.5462 14.6178 44.3542 14.4355 44.0938 14.2988C43.8333 14.1556 43.5046 14.084 43.1074 14.084C42.7493 14.084 42.4466 14.1426 42.1992 14.2598C41.9583 14.377 41.776 14.5299 41.6523 14.7188C41.5286 14.9076 41.4668 15.1159 41.4668 15.3438C41.4668 15.513 41.4993 15.666 41.5645 15.8027C41.6361 15.9329 41.75 16.0534 41.9062 16.1641C42.0625 16.2747 42.2741 16.3757 42.541 16.4668C42.8145 16.5579 43.1497 16.6458 43.5469 16.7305C44.3346 16.8867 45.0215 17.0951 45.6074 17.3555C46.1999 17.6094 46.6621 17.9479 46.9941 18.3711C47.3262 18.7943 47.4922 19.3346 47.4922 19.9922C47.4922 20.4609 47.3913 20.8906 47.1895 21.2812C46.9876 21.6654 46.6947 22.0007 46.3105 22.2871C45.9264 22.5736 45.4674 22.7982 44.9336 22.9609C44.3997 23.1172 43.7975 23.1953 43.127 23.1953C42.1569 23.1953 41.3366 23.0228 40.666 22.6777C39.9954 22.3262 39.4876 21.8835 39.1426 21.3496C38.7975 20.8092 38.625 20.2493 38.625 19.6699H41.0957C41.1152 20.0801 41.2259 20.4089 41.4277 20.6562C41.6296 20.9036 41.8835 21.0827 42.1895 21.1934C42.502 21.2975 42.8307 21.3496 43.1758 21.3496C43.5664 21.3496 43.8952 21.2975 44.1621 21.1934C44.429 21.0827 44.6309 20.9362 44.7676 20.7539C44.9043 20.5651 44.9727 20.3503 44.9727 20.1094ZM51.9844 8V23H49.3965V8H51.9844ZM51.5742 17.3359H50.8125C50.8125 16.6003 50.9102 15.9232 51.1055 15.3047C51.3008 14.6862 51.5775 14.1491 51.9355 13.6934C52.2936 13.2311 52.7201 12.873 53.2148 12.6191C53.7161 12.3652 54.2695 12.2383 54.875 12.2383C55.3958 12.2383 55.8678 12.3132 56.291 12.4629C56.7207 12.6061 57.0885 12.8372 57.3945 13.1562C57.7005 13.4753 57.9349 13.8919 58.0977 14.4062C58.2669 14.9141 58.3516 15.5326 58.3516 16.2617V23H55.7539V16.2422C55.7539 15.7539 55.6823 15.3698 55.5391 15.0898C55.3958 14.8034 55.1908 14.5983 54.9238 14.4746C54.6634 14.3509 54.3411 14.2891 53.957 14.2891C53.5404 14.2891 53.1823 14.3704 52.8828 14.5332C52.5833 14.6895 52.3359 14.9076 52.1406 15.1875C51.9518 15.4674 51.8086 15.7897 51.7109 16.1543C51.6198 16.5189 51.5742 16.9128 51.5742 17.3359ZM60.168 17.8242V17.6191C60.168 16.8444 60.2786 16.1315 60.5 15.4805C60.7214 14.8229 61.0436 14.2533 61.4668 13.7715C61.89 13.2897 62.4076 12.9154 63.0195 12.6484C63.6315 12.375 64.3281 12.2383 65.1094 12.2383C65.9036 12.2383 66.6068 12.375 67.2188 12.6484C67.8372 12.9154 68.3581 13.2897 68.7812 13.7715C69.2044 14.2533 69.5267 14.8229 69.748 15.4805C69.9694 16.1315 70.0801 16.8444 70.0801 17.6191V17.8242C70.0801 18.5924 69.9694 19.3053 69.748 19.9629C69.5267 20.6139 69.2044 21.1836 68.7812 21.6719C68.3581 22.1536 67.8405 22.528 67.2285 22.7949C66.6165 23.0618 65.9167 23.1953 65.1289 23.1953C64.3477 23.1953 63.6478 23.0618 63.0293 22.7949C62.4108 22.528 61.89 22.1536 61.4668 21.6719C61.0436 21.1836 60.7214 20.6139 60.5 19.9629C60.2786 19.3053 60.168 18.5924 60.168 17.8242ZM62.7461 17.6191V17.8242C62.7461 18.2865 62.7917 18.7194 62.8828 19.123C62.974 19.5267 63.1139 19.8815 63.3027 20.1875C63.4915 20.4935 63.7357 20.7344 64.0352 20.9102C64.3411 21.0794 64.7057 21.1641 65.1289 21.1641C65.5456 21.1641 65.9036 21.0794 66.2031 20.9102C66.5026 20.7344 66.7467 20.4935 66.9355 20.1875C67.1309 19.8815 67.2741 19.5267 67.3652 19.123C67.4564 18.7194 67.502 18.2865 67.502 17.8242V17.6191C67.502 17.1634 67.4564 16.737 67.3652 16.3398C67.2741 15.9362 67.1309 15.5814 66.9355 15.2754C66.7467 14.9629 66.4993 14.7188 66.1934 14.543C65.8939 14.3607 65.5326 14.2695 65.1094 14.2695C64.6927 14.2695 64.3346 14.3607 64.0352 14.543C63.7357 14.7188 63.4915 14.9629 63.3027 15.2754C63.1139 15.5814 62.974 15.9362 62.8828 16.3398C62.7917 16.737 62.7461 17.1634 62.7461 17.6191ZM74.5332 14.4648V27.0625H71.9453V12.4336H74.3379L74.5332 14.4648ZM81.3203 17.6094V17.8145C81.3203 18.5827 81.2292 19.2956 81.0469 19.9531C80.8711 20.6042 80.6107 21.1738 80.2656 21.6621C79.9206 22.1439 79.4909 22.5215 78.9766 22.7949C78.4688 23.0618 77.8828 23.1953 77.2188 23.1953C76.5677 23.1953 76.0013 23.0716 75.5195 22.8242C75.0378 22.5703 74.6309 22.2122 74.2988 21.75C73.9668 21.2878 73.6999 20.7507 73.498 20.1387C73.3027 19.5202 73.1562 18.8464 73.0586 18.1172V17.4629C73.1562 16.6882 73.3027 15.985 73.498 15.3535C73.6999 14.7155 73.9668 14.1654 74.2988 13.7031C74.6309 13.2344 75.0345 12.873 75.5098 12.6191C75.9915 12.3652 76.5547 12.2383 77.1992 12.2383C77.8698 12.2383 78.459 12.3652 78.9668 12.6191C79.4811 12.873 79.9141 13.2376 80.2656 13.7129C80.6172 14.1882 80.8809 14.7546 81.0566 15.4121C81.2324 16.0697 81.3203 16.8021 81.3203 17.6094ZM78.7324 17.8145V17.6094C78.7324 17.1406 78.6901 16.7077 78.6055 16.3105C78.5208 15.9069 78.3906 15.5553 78.2148 15.2559C78.0391 14.9499 77.8112 14.7122 77.5312 14.543C77.2513 14.3737 76.9128 14.2891 76.5156 14.2891C76.1185 14.2891 75.7767 14.3542 75.4902 14.4844C75.2038 14.6146 74.9694 14.8001 74.7871 15.041C74.6048 15.2819 74.4616 15.5684 74.3574 15.9004C74.2598 16.2259 74.1947 16.5872 74.1621 16.9844V18.6055C74.2207 19.0872 74.3346 19.5202 74.5039 19.9043C74.6732 20.2884 74.9206 20.5944 75.2461 20.8223C75.5781 21.0501 76.0078 21.1641 76.5352 21.1641C76.9323 21.1641 77.2708 21.0762 77.5508 20.9004C77.8307 20.7246 78.0586 20.4837 78.2344 20.1777C78.4102 19.8652 78.5371 19.5072 78.6152 19.1035C78.6934 18.6999 78.7324 18.2702 78.7324 17.8145Z" fill="black"/>
<path d="M89.0156 20.1094C89.0156 19.888 88.957 19.6895 88.8398 19.5137C88.7227 19.3379 88.5013 19.1784 88.1758 19.0352C87.8568 18.8854 87.388 18.7454 86.7695 18.6152C86.2227 18.498 85.7181 18.3516 85.2559 18.1758C84.7936 18 84.3965 17.7884 84.0645 17.541C83.7324 17.2871 83.472 16.9909 83.2832 16.6523C83.1009 16.3073 83.0098 15.9102 83.0098 15.4609C83.0098 15.0247 83.1042 14.6146 83.293 14.2305C83.4818 13.8398 83.7552 13.498 84.1133 13.2051C84.4714 12.9056 84.9076 12.6712 85.4219 12.502C85.9362 12.3262 86.5156 12.2383 87.1602 12.2383C88.0586 12.2383 88.8301 12.3848 89.4746 12.6777C90.1257 12.9707 90.6237 13.3743 90.9688 13.8887C91.3138 14.3965 91.4863 14.9694 91.4863 15.6074H88.9082C88.9082 15.3275 88.8431 15.0736 88.7129 14.8457C88.5892 14.6178 88.3971 14.4355 88.1367 14.2988C87.8763 14.1556 87.5475 14.084 87.1504 14.084C86.7923 14.084 86.4896 14.1426 86.2422 14.2598C86.0013 14.377 85.819 14.5299 85.6953 14.7188C85.5716 14.9076 85.5098 15.1159 85.5098 15.3438C85.5098 15.513 85.5423 15.666 85.6074 15.8027C85.679 15.9329 85.793 16.0534 85.9492 16.1641C86.1055 16.2747 86.3171 16.3757 86.584 16.4668C86.8574 16.5579 87.1927 16.6458 87.5898 16.7305C88.3776 16.8867 89.0645 17.0951 89.6504 17.3555C90.2428 17.6094 90.7051 17.9479 91.0371 18.3711C91.3691 18.7943 91.5352 19.3346 91.5352 19.9922C91.5352 20.4609 91.4342 20.8906 91.2324 21.2812C91.0306 21.6654 90.7376 22.0007 90.3535 22.2871C89.9694 22.5736 89.5104 22.7982 88.9766 22.9609C88.4427 23.1172 87.8405 23.1953 87.1699 23.1953C86.1999 23.1953 85.3796 23.0228 84.709 22.6777C84.0384 22.3262 83.5306 21.8835 83.1855 21.3496C82.8405 20.8092 82.668 20.2493 82.668 19.6699H85.1387C85.1582 20.0801 85.2689 20.4089 85.4707 20.6562C85.6725 20.9036 85.9264 21.0827 86.2324 21.1934C86.5449 21.2975 86.8737 21.3496 87.2188 21.3496C87.6094 21.3496 87.9382 21.2975 88.2051 21.1934C88.472 21.0827 88.6738 20.9362 88.8105 20.7539C88.9473 20.5651 89.0156 20.3503 89.0156 20.1094ZM96.0762 14.4648V27.0625H93.4883V12.4336H95.8809L96.0762 14.4648ZM102.863 17.6094V17.8145C102.863 18.5827 102.772 19.2956 102.59 19.9531C102.414 20.6042 102.154 21.1738 101.809 21.6621C101.464 22.1439 101.034 22.5215 100.52 22.7949C100.012 23.0618 99.4258 23.1953 98.7617 23.1953C98.1107 23.1953 97.5443 23.0716 97.0625 22.8242C96.5807 22.5703 96.1738 22.2122 95.8418 21.75C95.5098 21.2878 95.2428 20.7507 95.041 20.1387C94.8457 19.5202 94.6992 18.8464 94.6016 18.1172V17.4629C94.6992 16.6882 94.8457 15.985 95.041 15.3535C95.2428 14.7155 95.5098 14.1654 95.8418 13.7031C96.1738 13.2344 96.5775 12.873 97.0527 12.6191C97.5345 12.3652 98.0977 12.2383 98.7422 12.2383C99.4128 12.2383 100.002 12.3652 100.51 12.6191C101.024 12.873 101.457 13.2376 101.809 13.7129C102.16 14.1882 102.424 14.7546 102.6 15.4121C102.775 16.0697 102.863 16.8021 102.863 17.6094ZM100.275 17.8145V17.6094C100.275 17.1406 100.233 16.7077 100.148 16.3105C100.064 15.9069 99.9336 15.5553 99.7578 15.2559C99.582 14.9499 99.3542 14.7122 99.0742 14.543C98.7943 14.3737 98.4557 14.2891 98.0586 14.2891C97.6615 14.2891 97.3197 14.3542 97.0332 14.4844C96.7467 14.6146 96.5124 14.8001 96.3301 15.041C96.1478 15.2819 96.0046 15.5684 95.9004 15.9004C95.8027 16.2259 95.7376 16.5872 95.7051 16.9844V18.6055C95.7637 19.0872 95.8776 19.5202 96.0469 19.9043C96.2161 20.2884 96.4635 20.5944 96.7891 20.8223C97.1211 21.0501 97.5508 21.1641 98.0781 21.1641C98.4753 21.1641 98.8138 21.0762 99.0938 20.9004C99.3737 20.7246 99.6016 20.4837 99.7773 20.1777C99.9531 19.8652 100.08 19.5072 100.158 19.1035C100.236 18.6999 100.275 18.2702 100.275 17.8145ZM107.277 8V23H104.689V8H107.277ZM106.867 17.3359H106.105C106.105 16.6003 106.203 15.9232 106.398 15.3047C106.594 14.6862 106.87 14.1491 107.229 13.6934C107.587 13.2311 108.013 12.873 108.508 12.6191C109.009 12.3652 109.562 12.2383 110.168 12.2383C110.689 12.2383 111.161 12.3132 111.584 12.4629C112.014 12.6061 112.382 12.8372 112.688 13.1562C112.993 13.4753 113.228 13.8919 113.391 14.4062C113.56 14.9141 113.645 15.5326 113.645 16.2617V23H111.047V16.2422C111.047 15.7539 110.975 15.3698 110.832 15.0898C110.689 14.8034 110.484 14.5983 110.217 14.4746C109.956 14.3509 109.634 14.2891 109.25 14.2891C108.833 14.2891 108.475 14.3704 108.176 14.5332C107.876 14.6895 107.629 14.9076 107.434 15.1875C107.245 15.4674 107.102 15.7897 107.004 16.1543C106.913 16.5189 106.867 16.9128 106.867 17.3359ZM120.666 23.1953C119.865 23.1953 119.146 23.0651 118.508 22.8047C117.87 22.5443 117.326 22.1829 116.877 21.7207C116.434 21.252 116.092 20.7083 115.852 20.0898C115.617 19.4648 115.5 18.7943 115.5 18.0781V17.6875C115.5 16.8737 115.617 16.1348 115.852 15.4707C116.086 14.8001 116.418 14.224 116.848 13.7422C117.277 13.2604 117.792 12.8893 118.391 12.6289C118.99 12.3685 119.65 12.2383 120.373 12.2383C121.122 12.2383 121.783 12.3652 122.355 12.6191C122.928 12.8665 123.407 13.2181 123.791 13.6738C124.175 14.1296 124.465 14.6764 124.66 15.3145C124.855 15.946 124.953 16.6458 124.953 17.4141V18.498H116.672V16.7207H122.414V16.5254C122.401 16.1152 122.323 15.7409 122.18 15.4023C122.036 15.0573 121.815 14.7839 121.516 14.582C121.216 14.3737 120.829 14.2695 120.354 14.2695C119.969 14.2695 119.634 14.3542 119.348 14.5234C119.068 14.6862 118.833 14.9206 118.645 15.2266C118.462 15.526 118.326 15.8841 118.234 16.3008C118.143 16.7174 118.098 17.1797 118.098 17.6875V18.0781C118.098 18.5208 118.156 18.931 118.273 19.3086C118.397 19.6862 118.576 20.015 118.811 20.2949C119.051 20.5684 119.338 20.7832 119.67 20.9395C120.008 21.0892 120.393 21.1641 120.822 21.1641C121.363 21.1641 121.851 21.0599 122.287 20.8516C122.73 20.6367 123.114 20.321 123.439 19.9043L124.738 21.252C124.517 21.5775 124.217 21.89 123.84 22.1895C123.469 22.4889 123.02 22.7331 122.492 22.9219C121.965 23.1042 121.356 23.1953 120.666 23.1953ZM129.26 14.5918V23H126.682V12.4336H129.123L129.26 14.5918ZM132.473 12.3652L132.434 14.7676C132.29 14.7415 132.128 14.722 131.945 14.709C131.77 14.696 131.604 14.6895 131.447 14.6895C131.05 14.6895 130.702 14.7448 130.402 14.8555C130.103 14.9596 129.852 15.1126 129.65 15.3145C129.455 15.5163 129.305 15.7637 129.201 16.0566C129.097 16.3431 129.038 16.6686 129.025 17.0332L128.469 16.9648C128.469 16.2943 128.537 15.6725 128.674 15.0996C128.811 14.5267 129.009 14.0254 129.27 13.5957C129.53 13.166 129.855 12.834 130.246 12.5996C130.643 12.3587 131.099 12.2383 131.613 12.2383C131.757 12.2383 131.91 12.2513 132.072 12.2773C132.242 12.2969 132.375 12.3262 132.473 12.3652ZM138.439 23.1953C137.639 23.1953 136.919 23.0651 136.281 22.8047C135.643 22.5443 135.1 22.1829 134.65 21.7207C134.208 21.252 133.866 20.7083 133.625 20.0898C133.391 19.4648 133.273 18.7943 133.273 18.0781V17.6875C133.273 16.8737 133.391 16.1348 133.625 15.4707C133.859 14.8001 134.191 14.224 134.621 13.7422C135.051 13.2604 135.565 12.8893 136.164 12.6289C136.763 12.3685 137.424 12.2383 138.146 12.2383C138.895 12.2383 139.556 12.3652 140.129 12.6191C140.702 12.8665 141.18 13.2181 141.564 13.6738C141.949 14.1296 142.238 14.6764 142.434 15.3145C142.629 15.946 142.727 16.6458 142.727 17.4141V18.498H134.445V16.7207H140.188V16.5254C140.174 16.1152 140.096 15.7409 139.953 15.4023C139.81 15.0573 139.589 14.7839 139.289 14.582C138.99 14.3737 138.602 14.2695 138.127 14.2695C137.743 14.2695 137.408 14.3542 137.121 14.5234C136.841 14.6862 136.607 14.9206 136.418 15.2266C136.236 15.526 136.099 15.8841 136.008 16.3008C135.917 16.7174 135.871 17.1797 135.871 17.6875V18.0781C135.871 18.5208 135.93 18.931 136.047 19.3086C136.171 19.6862 136.35 20.015 136.584 20.2949C136.825 20.5684 137.111 20.7832 137.443 20.9395C137.782 21.0892 138.166 21.1641 138.596 21.1641C139.136 21.1641 139.624 21.0599 140.061 20.8516C140.503 20.6367 140.887 20.321 141.213 19.9043L142.512 21.252C142.29 21.5775 141.991 21.89 141.613 22.1895C141.242 22.4889 140.793 22.7331 140.266 22.9219C139.738 23.1042 139.13 23.1953 138.439 23.1953Z" fill="#FAFAFA"/>
</svg>
